<mxfile host="Electron" agent="Mozilla/5.0 (Windows NT 10.0; Win64; x64) AppleWebKit/537.36 (KHTML, like Gecko) draw.io/26.2.2 Chrome/134.0.6998.178 Electron/35.1.2 Safari/537.36" version="26.2.2" pages="6">
  <diagram id="qBD1QRcZSvZhv71Q8t4s" name="目次">
    <mxGraphModel dx="1410" dy="823" grid="1" gridSize="10" guides="1" tooltips="1" connect="1" arrows="1" fold="1" page="1" pageScale="1" pageWidth="827" pageHeight="1169" math="0" shadow="0">
      <root>
        <mxCell id="0" />
        <mxCell id="1" parent="0" />
        <mxCell id="6q5sBleYpq-2xnI9o5Sz-1" value="" style="shape=table;startSize=0;container=1;collapsible=0;childLayout=tableLayout;fontSize=16;movable=1;resizable=1;rotatable=1;deletable=1;editable=1;locked=0;connectable=1;" parent="1" vertex="1">
          <mxGeometry x="24" y="30" width="780" height="70" as="geometry" />
        </mxCell>
        <mxCell id="6q5sBleYpq-2xnI9o5Sz-2" value="" style="shape=tableRow;horizontal=0;startSize=0;swimlaneHead=0;swimlaneBody=0;strokeColor=inherit;top=0;left=0;bottom=0;right=0;collapsible=0;dropTarget=0;fillColor=none;points=[[0,0.5],[1,0.5]];portConstraint=eastwest;fontSize=16;movable=1;resizable=1;rotatable=1;deletable=1;editable=1;locked=0;connectable=1;" parent="6q5sBleYpq-2xnI9o5Sz-1" vertex="1">
          <mxGeometry width="780" height="36" as="geometry" />
        </mxCell>
        <mxCell id="6q5sBleYpq-2xnI9o5Sz-3" value="文書名" style="shape=partialRectangle;html=1;whiteSpace=wrap;connectable=1;strokeColor=inherit;overflow=hidden;fillColor=none;top=0;left=0;bottom=0;right=0;pointerEvents=1;fontSize=16;movable=1;resizable=1;rotatable=1;deletable=1;editable=1;locked=0;" parent="6q5sBleYpq-2xnI9o5Sz-2" vertex="1">
          <mxGeometry width="380" height="36" as="geometry">
            <mxRectangle width="380" height="36" as="alternateBounds" />
          </mxGeometry>
        </mxCell>
        <mxCell id="6q5sBleYpq-2xnI9o5Sz-4" value="作成者" style="shape=partialRectangle;html=1;whiteSpace=wrap;connectable=1;strokeColor=inherit;overflow=hidden;fillColor=none;top=0;left=0;bottom=0;right=0;pointerEvents=1;fontSize=16;movable=1;resizable=1;rotatable=1;deletable=1;editable=1;locked=0;" parent="6q5sBleYpq-2xnI9o5Sz-2" vertex="1">
          <mxGeometry x="380" width="100" height="36" as="geometry">
            <mxRectangle width="100" height="36" as="alternateBounds" />
          </mxGeometry>
        </mxCell>
        <mxCell id="6q5sBleYpq-2xnI9o5Sz-5" value="作成日" style="shape=partialRectangle;html=1;whiteSpace=wrap;connectable=1;strokeColor=inherit;overflow=hidden;fillColor=none;top=0;left=0;bottom=0;right=0;pointerEvents=1;fontSize=16;movable=1;resizable=1;rotatable=1;deletable=1;editable=1;locked=0;" parent="6q5sBleYpq-2xnI9o5Sz-2" vertex="1">
          <mxGeometry x="480" width="100" height="36" as="geometry">
            <mxRectangle width="100" height="36" as="alternateBounds" />
          </mxGeometry>
        </mxCell>
        <mxCell id="6q5sBleYpq-2xnI9o5Sz-6" value="更新者" style="shape=partialRectangle;html=1;whiteSpace=wrap;connectable=1;strokeColor=inherit;overflow=hidden;fillColor=none;top=0;left=0;bottom=0;right=0;pointerEvents=1;fontSize=16;movable=1;resizable=1;rotatable=1;deletable=1;editable=1;locked=0;" parent="6q5sBleYpq-2xnI9o5Sz-2" vertex="1">
          <mxGeometry x="580" width="100" height="36" as="geometry">
            <mxRectangle width="100" height="36" as="alternateBounds" />
          </mxGeometry>
        </mxCell>
        <mxCell id="6q5sBleYpq-2xnI9o5Sz-7" value="更新日" style="shape=partialRectangle;html=1;whiteSpace=wrap;connectable=1;strokeColor=inherit;overflow=hidden;fillColor=none;top=0;left=0;bottom=0;right=0;pointerEvents=1;fontSize=16;movable=1;resizable=1;rotatable=1;deletable=1;editable=1;locked=0;" parent="6q5sBleYpq-2xnI9o5Sz-2" vertex="1">
          <mxGeometry x="680" width="100" height="36" as="geometry">
            <mxRectangle width="100" height="36" as="alternateBounds" />
          </mxGeometry>
        </mxCell>
        <mxCell id="6q5sBleYpq-2xnI9o5Sz-8" value="" style="shape=tableRow;horizontal=0;startSize=0;swimlaneHead=0;swimlaneBody=0;strokeColor=inherit;top=0;left=0;bottom=0;right=0;collapsible=0;dropTarget=0;fillColor=none;points=[[0,0.5],[1,0.5]];portConstraint=eastwest;fontSize=16;movable=1;resizable=1;rotatable=1;deletable=1;editable=1;locked=0;connectable=1;" parent="6q5sBleYpq-2xnI9o5Sz-1" vertex="1">
          <mxGeometry y="36" width="780" height="34" as="geometry" />
        </mxCell>
        <mxCell id="6q5sBleYpq-2xnI9o5Sz-9" value="サポートデスク各種業務フロー図" style="shape=partialRectangle;html=1;whiteSpace=wrap;connectable=1;strokeColor=inherit;overflow=hidden;fillColor=none;top=0;left=0;bottom=0;right=0;pointerEvents=1;fontSize=16;movable=1;resizable=1;rotatable=1;deletable=1;editable=1;locked=0;" parent="6q5sBleYpq-2xnI9o5Sz-8" vertex="1">
          <mxGeometry width="380" height="34" as="geometry">
            <mxRectangle width="380" height="34" as="alternateBounds" />
          </mxGeometry>
        </mxCell>
        <mxCell id="6q5sBleYpq-2xnI9o5Sz-10" value="髙山" style="shape=partialRectangle;html=1;whiteSpace=wrap;connectable=1;strokeColor=inherit;overflow=hidden;fillColor=none;top=0;left=0;bottom=0;right=0;pointerEvents=1;fontSize=16;movable=1;resizable=1;rotatable=1;deletable=1;editable=1;locked=0;" parent="6q5sBleYpq-2xnI9o5Sz-8" vertex="1">
          <mxGeometry x="380" width="100" height="34" as="geometry">
            <mxRectangle width="100" height="34" as="alternateBounds" />
          </mxGeometry>
        </mxCell>
        <mxCell id="6q5sBleYpq-2xnI9o5Sz-11" value="2025/-5/15" style="shape=partialRectangle;html=1;whiteSpace=wrap;connectable=1;strokeColor=inherit;overflow=hidden;fillColor=none;top=0;left=0;bottom=0;right=0;pointerEvents=1;fontSize=16;movable=1;resizable=1;rotatable=1;deletable=1;editable=1;locked=0;" parent="6q5sBleYpq-2xnI9o5Sz-8" vertex="1">
          <mxGeometry x="480" width="100" height="34" as="geometry">
            <mxRectangle width="100" height="34" as="alternateBounds" />
          </mxGeometry>
        </mxCell>
        <mxCell id="6q5sBleYpq-2xnI9o5Sz-12" style="shape=partialRectangle;html=1;whiteSpace=wrap;connectable=1;strokeColor=inherit;overflow=hidden;fillColor=none;top=0;left=0;bottom=0;right=0;pointerEvents=1;fontSize=16;movable=1;resizable=1;rotatable=1;deletable=1;editable=1;locked=0;" parent="6q5sBleYpq-2xnI9o5Sz-8" vertex="1">
          <mxGeometry x="580" width="100" height="34" as="geometry">
            <mxRectangle width="100" height="34" as="alternateBounds" />
          </mxGeometry>
        </mxCell>
        <mxCell id="6q5sBleYpq-2xnI9o5Sz-13" style="shape=partialRectangle;html=1;whiteSpace=wrap;connectable=1;strokeColor=inherit;overflow=hidden;fillColor=none;top=0;left=0;bottom=0;right=0;pointerEvents=1;fontSize=16;movable=1;resizable=1;rotatable=1;deletable=1;editable=1;locked=0;" parent="6q5sBleYpq-2xnI9o5Sz-8" vertex="1">
          <mxGeometry x="680" width="100" height="34" as="geometry">
            <mxRectangle width="100" height="34" as="alternateBounds" />
          </mxGeometry>
        </mxCell>
        <mxCell id="R9WoHy7fIADIdO8YZVkG-1" value="Table of Contents" style="shape=table;startSize=30;container=1;collapsible=0;childLayout=tableLayout;fixedRows=1;rowLines=0;fontStyle=0;strokeColor=default;fontSize=16;" parent="1" vertex="1">
          <mxGeometry x="40" y="160" width="751" height="180" as="geometry" />
        </mxCell>
        <mxCell id="R9WoHy7fIADIdO8YZVkG-2" value="" style="shape=tableRow;horizontal=0;startSize=0;swimlaneHead=0;swimlaneBody=0;top=0;left=0;bottom=0;right=0;collapsible=0;dropTarget=0;fillColor=none;points=[[0,0.5],[1,0.5]];portConstraint=eastwest;strokeColor=inherit;fontSize=16;" parent="R9WoHy7fIADIdO8YZVkG-1" vertex="1">
          <mxGeometry y="30" width="751" height="30" as="geometry" />
        </mxCell>
        <mxCell id="R9WoHy7fIADIdO8YZVkG-3" value="1" style="shape=partialRectangle;html=1;whiteSpace=wrap;connectable=0;fillColor=none;top=0;left=0;bottom=0;right=0;overflow=hidden;pointerEvents=1;strokeColor=inherit;fontSize=16;" parent="R9WoHy7fIADIdO8YZVkG-2" vertex="1">
          <mxGeometry width="160" height="30" as="geometry">
            <mxRectangle width="160" height="30" as="alternateBounds" />
          </mxGeometry>
        </mxCell>
        <mxCell id="R9WoHy7fIADIdO8YZVkG-4" value="問い合わせ対応業務" style="shape=partialRectangle;html=1;whiteSpace=wrap;connectable=0;fillColor=none;top=0;left=0;bottom=0;right=0;align=left;spacingLeft=6;overflow=hidden;strokeColor=inherit;fontSize=16;" parent="R9WoHy7fIADIdO8YZVkG-2" vertex="1">
          <mxGeometry x="160" width="591" height="30" as="geometry">
            <mxRectangle width="591" height="30" as="alternateBounds" />
          </mxGeometry>
        </mxCell>
        <mxCell id="R9WoHy7fIADIdO8YZVkG-5" value="" style="shape=tableRow;horizontal=0;startSize=0;swimlaneHead=0;swimlaneBody=0;top=0;left=0;bottom=0;right=0;collapsible=0;dropTarget=0;fillColor=none;points=[[0,0.5],[1,0.5]];portConstraint=eastwest;strokeColor=inherit;fontSize=16;" parent="R9WoHy7fIADIdO8YZVkG-1" vertex="1">
          <mxGeometry y="60" width="751" height="30" as="geometry" />
        </mxCell>
        <mxCell id="R9WoHy7fIADIdO8YZVkG-6" value="2" style="shape=partialRectangle;html=1;whiteSpace=wrap;connectable=0;fillColor=none;top=0;left=0;bottom=0;right=0;overflow=hidden;strokeColor=inherit;fontSize=16;" parent="R9WoHy7fIADIdO8YZVkG-5" vertex="1">
          <mxGeometry width="160" height="30" as="geometry">
            <mxRectangle width="160" height="30" as="alternateBounds" />
          </mxGeometry>
        </mxCell>
        <mxCell id="R9WoHy7fIADIdO8YZVkG-7" value="神保町6階検証用NICE PC管理業務" style="shape=partialRectangle;html=1;whiteSpace=wrap;connectable=0;fillColor=none;top=0;left=0;bottom=0;right=0;align=left;spacingLeft=6;overflow=hidden;strokeColor=inherit;fontSize=16;" parent="R9WoHy7fIADIdO8YZVkG-5" vertex="1">
          <mxGeometry x="160" width="591" height="30" as="geometry">
            <mxRectangle width="591" height="30" as="alternateBounds" />
          </mxGeometry>
        </mxCell>
        <mxCell id="R9WoHy7fIADIdO8YZVkG-8" value="" style="shape=tableRow;horizontal=0;startSize=0;swimlaneHead=0;swimlaneBody=0;top=0;left=0;bottom=0;right=0;collapsible=0;dropTarget=0;fillColor=none;points=[[0,0.5],[1,0.5]];portConstraint=eastwest;strokeColor=inherit;fontSize=16;" parent="R9WoHy7fIADIdO8YZVkG-1" vertex="1">
          <mxGeometry y="90" width="751" height="30" as="geometry" />
        </mxCell>
        <mxCell id="R9WoHy7fIADIdO8YZVkG-9" value="3" style="shape=partialRectangle;html=1;whiteSpace=wrap;connectable=0;fillColor=none;top=0;left=0;bottom=0;right=0;overflow=hidden;strokeColor=inherit;fontSize=16;" parent="R9WoHy7fIADIdO8YZVkG-8" vertex="1">
          <mxGeometry width="160" height="30" as="geometry">
            <mxRectangle width="160" height="30" as="alternateBounds" />
          </mxGeometry>
        </mxCell>
        <mxCell id="R9WoHy7fIADIdO8YZVkG-10" value="4階サーバー室鍵貸出業務" style="shape=partialRectangle;html=1;whiteSpace=wrap;connectable=0;fillColor=none;top=0;left=0;bottom=0;right=0;align=left;spacingLeft=6;overflow=hidden;strokeColor=inherit;fontSize=16;" parent="R9WoHy7fIADIdO8YZVkG-8" vertex="1">
          <mxGeometry x="160" width="591" height="30" as="geometry">
            <mxRectangle width="591" height="30" as="alternateBounds" />
          </mxGeometry>
        </mxCell>
        <mxCell id="R9WoHy7fIADIdO8YZVkG-14" style="shape=tableRow;horizontal=0;startSize=0;swimlaneHead=0;swimlaneBody=0;top=0;left=0;bottom=0;right=0;collapsible=0;dropTarget=0;fillColor=none;points=[[0,0.5],[1,0.5]];portConstraint=eastwest;strokeColor=inherit;fontSize=16;" parent="R9WoHy7fIADIdO8YZVkG-1" vertex="1">
          <mxGeometry y="120" width="751" height="30" as="geometry" />
        </mxCell>
        <mxCell id="R9WoHy7fIADIdO8YZVkG-15" value="4" style="shape=partialRectangle;html=1;whiteSpace=wrap;connectable=0;fillColor=none;top=0;left=0;bottom=0;right=0;overflow=hidden;strokeColor=inherit;fontSize=16;" parent="R9WoHy7fIADIdO8YZVkG-14" vertex="1">
          <mxGeometry width="160" height="30" as="geometry">
            <mxRectangle width="160" height="30" as="alternateBounds" />
          </mxGeometry>
        </mxCell>
        <mxCell id="R9WoHy7fIADIdO8YZVkG-16" value="&lt;span style=&quot;text-align: center; text-wrap-mode: nowrap;&quot;&gt;&lt;font style=&quot;&quot;&gt;三井ビル作業届処理&lt;/font&gt;&lt;/span&gt;" style="shape=partialRectangle;html=1;whiteSpace=wrap;connectable=0;fillColor=none;top=0;left=0;bottom=0;right=0;align=left;spacingLeft=6;overflow=hidden;strokeColor=inherit;fontSize=16;" parent="R9WoHy7fIADIdO8YZVkG-14" vertex="1">
          <mxGeometry x="160" width="591" height="30" as="geometry">
            <mxRectangle width="591" height="30" as="alternateBounds" />
          </mxGeometry>
        </mxCell>
        <mxCell id="R9WoHy7fIADIdO8YZVkG-11" style="shape=tableRow;horizontal=0;startSize=0;swimlaneHead=0;swimlaneBody=0;top=0;left=0;bottom=0;right=0;collapsible=0;dropTarget=0;fillColor=none;points=[[0,0.5],[1,0.5]];portConstraint=eastwest;strokeColor=inherit;fontSize=16;" parent="R9WoHy7fIADIdO8YZVkG-1" vertex="1">
          <mxGeometry y="150" width="751" height="30" as="geometry" />
        </mxCell>
        <mxCell id="R9WoHy7fIADIdO8YZVkG-12" value="5" style="shape=partialRectangle;html=1;whiteSpace=wrap;connectable=0;fillColor=none;top=0;left=0;bottom=0;right=0;overflow=hidden;strokeColor=inherit;fontSize=16;" parent="R9WoHy7fIADIdO8YZVkG-11" vertex="1">
          <mxGeometry width="160" height="30" as="geometry">
            <mxRectangle width="160" height="30" as="alternateBounds" />
          </mxGeometry>
        </mxCell>
        <mxCell id="R9WoHy7fIADIdO8YZVkG-13" value="&lt;span style=&quot;text-align: center; text-wrap-mode: nowrap;&quot;&gt;&lt;font style=&quot;&quot;&gt;NICE利用申請&lt;/font&gt;&lt;/span&gt;" style="shape=partialRectangle;html=1;whiteSpace=wrap;connectable=0;fillColor=none;top=0;left=0;bottom=0;right=0;align=left;spacingLeft=6;overflow=hidden;strokeColor=inherit;fontSize=16;" parent="R9WoHy7fIADIdO8YZVkG-11" vertex="1">
          <mxGeometry x="160" width="591" height="30" as="geometry">
            <mxRectangle width="591" height="30" as="alternateBounds" />
          </mxGeometry>
        </mxCell>
      </root>
    </mxGraphModel>
  </diagram>
  <diagram name="問合せ対応" id="JsWyMbj3V_dUt0YRt9f1">
    <mxGraphModel dx="2014" dy="1176" grid="1" gridSize="10" guides="1" tooltips="1" connect="1" arrows="1" fold="1" page="1" pageScale="1" pageWidth="827" pageHeight="1169" math="0" shadow="0">
      <root>
        <mxCell id="0" />
        <mxCell id="1" parent="0" />
        <mxCell id="g3DRVWfjHYgkhgWcibjf-1" value="問合せ対応" style="swimlane;childLayout=stackLayout;resizeParent=1;resizeParentMax=0;startSize=20;html=1;" parent="1" vertex="1">
          <mxGeometry x="30" y="150" width="550" height="770" as="geometry" />
        </mxCell>
        <mxCell id="g3DRVWfjHYgkhgWcibjf-2" value="ユーザ" style="swimlane;startSize=20;html=1;" parent="g3DRVWfjHYgkhgWcibjf-1" vertex="1">
          <mxGeometry y="20" width="150" height="750" as="geometry" />
        </mxCell>
        <mxCell id="g3DRVWfjHYgkhgWcibjf-5" value="相談をする" style="rounded=1;whiteSpace=wrap;html=1;" parent="g3DRVWfjHYgkhgWcibjf-2" vertex="1">
          <mxGeometry x="35" y="40" width="80" height="40" as="geometry" />
        </mxCell>
        <mxCell id="g3DRVWfjHYgkhgWcibjf-95" value="解決" style="rounded=1;whiteSpace=wrap;html=1;" parent="g3DRVWfjHYgkhgWcibjf-2" vertex="1">
          <mxGeometry x="35" y="650" width="80" height="40" as="geometry" />
        </mxCell>
        <mxCell id="g3DRVWfjHYgkhgWcibjf-7" value="" style="edgeStyle=orthogonalEdgeStyle;rounded=0;orthogonalLoop=1;jettySize=auto;html=1;" parent="g3DRVWfjHYgkhgWcibjf-1" source="g3DRVWfjHYgkhgWcibjf-5" target="g3DRVWfjHYgkhgWcibjf-6" edge="1">
          <mxGeometry relative="1" as="geometry" />
        </mxCell>
        <mxCell id="g3DRVWfjHYgkhgWcibjf-13" value="対面" style="edgeLabel;html=1;align=center;verticalAlign=middle;resizable=0;points=[];fontSize=16;" parent="g3DRVWfjHYgkhgWcibjf-7" vertex="1" connectable="0">
          <mxGeometry x="0.02" y="1" relative="1" as="geometry">
            <mxPoint as="offset" />
          </mxGeometry>
        </mxCell>
        <mxCell id="g3DRVWfjHYgkhgWcibjf-66" value="" style="edgeStyle=orthogonalEdgeStyle;rounded=0;orthogonalLoop=1;jettySize=auto;html=1;" parent="g3DRVWfjHYgkhgWcibjf-1" source="g3DRVWfjHYgkhgWcibjf-24" target="g3DRVWfjHYgkhgWcibjf-65" edge="1">
          <mxGeometry relative="1" as="geometry" />
        </mxCell>
        <mxCell id="g3DRVWfjHYgkhgWcibjf-3" value="髙山" style="swimlane;startSize=20;html=1;" parent="g3DRVWfjHYgkhgWcibjf-1" vertex="1">
          <mxGeometry x="150" y="20" width="250" height="750" as="geometry" />
        </mxCell>
        <mxCell id="g3DRVWfjHYgkhgWcibjf-11" value="" style="edgeStyle=orthogonalEdgeStyle;rounded=0;orthogonalLoop=1;jettySize=auto;html=1;" parent="g3DRVWfjHYgkhgWcibjf-3" source="g3DRVWfjHYgkhgWcibjf-6" target="g3DRVWfjHYgkhgWcibjf-10" edge="1">
          <mxGeometry relative="1" as="geometry" />
        </mxCell>
        <mxCell id="g3DRVWfjHYgkhgWcibjf-6" value="受け付ける" style="rounded=1;whiteSpace=wrap;html=1;" parent="g3DRVWfjHYgkhgWcibjf-3" vertex="1">
          <mxGeometry x="80" y="40" width="80" height="40" as="geometry" />
        </mxCell>
        <mxCell id="g3DRVWfjHYgkhgWcibjf-82" style="edgeStyle=orthogonalEdgeStyle;rounded=0;orthogonalLoop=1;jettySize=auto;html=1;exitX=1;exitY=1;exitDx=0;exitDy=0;entryX=0.5;entryY=0;entryDx=0;entryDy=0;" parent="g3DRVWfjHYgkhgWcibjf-3" source="g3DRVWfjHYgkhgWcibjf-10" target="g3DRVWfjHYgkhgWcibjf-24" edge="1">
          <mxGeometry relative="1" as="geometry">
            <Array as="points">
              <mxPoint x="170" y="305" />
              <mxPoint x="140" y="305" />
            </Array>
          </mxGeometry>
        </mxCell>
        <mxCell id="g3DRVWfjHYgkhgWcibjf-83" value="しなかった" style="edgeLabel;html=1;align=center;verticalAlign=middle;resizable=0;points=[];" parent="g3DRVWfjHYgkhgWcibjf-82" vertex="1" connectable="0">
          <mxGeometry x="-0.5" y="-1" relative="1" as="geometry">
            <mxPoint as="offset" />
          </mxGeometry>
        </mxCell>
        <mxCell id="g3DRVWfjHYgkhgWcibjf-10" value="解決したか" style="rhombus;whiteSpace=wrap;html=1;" parent="g3DRVWfjHYgkhgWcibjf-3" vertex="1">
          <mxGeometry x="20" y="130" width="200" height="80" as="geometry" />
        </mxCell>
        <mxCell id="g3DRVWfjHYgkhgWcibjf-24" value="ヘルプに連絡" style="rounded=1;whiteSpace=wrap;html=1;" parent="g3DRVWfjHYgkhgWcibjf-3" vertex="1">
          <mxGeometry x="100" y="400" width="80" height="40" as="geometry" />
        </mxCell>
        <mxCell id="g3DRVWfjHYgkhgWcibjf-76" value="" style="edgeStyle=orthogonalEdgeStyle;rounded=0;orthogonalLoop=1;jettySize=auto;html=1;" parent="g3DRVWfjHYgkhgWcibjf-3" source="g3DRVWfjHYgkhgWcibjf-68" target="g3DRVWfjHYgkhgWcibjf-75" edge="1">
          <mxGeometry relative="1" as="geometry" />
        </mxCell>
        <mxCell id="g3DRVWfjHYgkhgWcibjf-68" value="その場で対応" style="rounded=1;whiteSpace=wrap;html=1;" parent="g3DRVWfjHYgkhgWcibjf-3" vertex="1">
          <mxGeometry x="10" y="478" width="80" height="42" as="geometry" />
        </mxCell>
        <mxCell id="g3DRVWfjHYgkhgWcibjf-88" value="" style="edgeStyle=orthogonalEdgeStyle;rounded=0;orthogonalLoop=1;jettySize=auto;html=1;" parent="g3DRVWfjHYgkhgWcibjf-3" source="g3DRVWfjHYgkhgWcibjf-75" target="g3DRVWfjHYgkhgWcibjf-86" edge="1">
          <mxGeometry relative="1" as="geometry" />
        </mxCell>
        <mxCell id="g3DRVWfjHYgkhgWcibjf-75" value="対応完了" style="rounded=1;whiteSpace=wrap;html=1;fillColor=#fad7ac;strokeColor=#b46504;" parent="g3DRVWfjHYgkhgWcibjf-3" vertex="1">
          <mxGeometry x="10" y="538" width="80" height="40" as="geometry" />
        </mxCell>
        <mxCell id="g3DRVWfjHYgkhgWcibjf-85" value="" style="edgeStyle=orthogonalEdgeStyle;rounded=0;orthogonalLoop=1;jettySize=auto;html=1;" parent="g3DRVWfjHYgkhgWcibjf-3" source="g3DRVWfjHYgkhgWcibjf-15" target="g3DRVWfjHYgkhgWcibjf-84" edge="1">
          <mxGeometry relative="1" as="geometry" />
        </mxCell>
        <mxCell id="g3DRVWfjHYgkhgWcibjf-15" value="対応完了" style="rounded=1;whiteSpace=wrap;html=1;fillColor=#fad7ac;strokeColor=#b46504;" parent="g3DRVWfjHYgkhgWcibjf-3" vertex="1">
          <mxGeometry x="10" y="240" width="80" height="40" as="geometry" />
        </mxCell>
        <mxCell id="g3DRVWfjHYgkhgWcibjf-16" value="" style="edgeStyle=orthogonalEdgeStyle;rounded=0;orthogonalLoop=1;jettySize=auto;html=1;exitX=0;exitY=1;exitDx=0;exitDy=0;" parent="g3DRVWfjHYgkhgWcibjf-3" source="g3DRVWfjHYgkhgWcibjf-10" target="g3DRVWfjHYgkhgWcibjf-15" edge="1">
          <mxGeometry relative="1" as="geometry" />
        </mxCell>
        <mxCell id="g3DRVWfjHYgkhgWcibjf-17" value="した" style="edgeLabel;html=1;align=center;verticalAlign=middle;resizable=0;points=[];" parent="g3DRVWfjHYgkhgWcibjf-16" vertex="1" connectable="0">
          <mxGeometry x="-0.5" relative="1" as="geometry">
            <mxPoint as="offset" />
          </mxGeometry>
        </mxCell>
        <mxCell id="g3DRVWfjHYgkhgWcibjf-84" value="履歴記載" style="rounded=1;whiteSpace=wrap;html=1;fillColor=#fad7ac;strokeColor=#b46504;" parent="g3DRVWfjHYgkhgWcibjf-3" vertex="1">
          <mxGeometry x="10" y="300" width="80" height="40" as="geometry" />
        </mxCell>
        <mxCell id="g3DRVWfjHYgkhgWcibjf-86" value="履歴記載" style="rounded=1;whiteSpace=wrap;html=1;fillColor=#fad7ac;strokeColor=#b46504;" parent="g3DRVWfjHYgkhgWcibjf-3" vertex="1">
          <mxGeometry x="10" y="591" width="80" height="40" as="geometry" />
        </mxCell>
        <mxCell id="g3DRVWfjHYgkhgWcibjf-100" style="edgeStyle=orthogonalEdgeStyle;rounded=0;orthogonalLoop=1;jettySize=auto;html=1;entryX=1;entryY=0.5;entryDx=0;entryDy=0;" parent="g3DRVWfjHYgkhgWcibjf-3" source="g3DRVWfjHYgkhgWcibjf-43" target="g3DRVWfjHYgkhgWcibjf-86" edge="1">
          <mxGeometry relative="1" as="geometry">
            <Array as="points">
              <mxPoint x="160" y="610" />
              <mxPoint x="90" y="610" />
            </Array>
          </mxGeometry>
        </mxCell>
        <mxCell id="g3DRVWfjHYgkhgWcibjf-43" value="対応依頼" style="rounded=1;whiteSpace=wrap;html=1;" parent="g3DRVWfjHYgkhgWcibjf-3" vertex="1">
          <mxGeometry x="140" y="490" width="80" height="40" as="geometry" />
        </mxCell>
        <mxCell id="g3DRVWfjHYgkhgWcibjf-12" value="ヘルプ(AJS・担当者)" style="swimlane;startSize=20;html=1;" parent="g3DRVWfjHYgkhgWcibjf-1" vertex="1">
          <mxGeometry x="400" y="20" width="150" height="750" as="geometry" />
        </mxCell>
        <mxCell id="g3DRVWfjHYgkhgWcibjf-65" value="&lt;font style=&quot;font-size: 12px;&quot;&gt;すぐ解決&lt;/font&gt;&lt;div&gt;&lt;span style=&quot;background-color: initial;&quot;&gt;するのか&lt;/span&gt;&lt;/div&gt;" style="rhombus;whiteSpace=wrap;html=1;" parent="g3DRVWfjHYgkhgWcibjf-12" vertex="1">
          <mxGeometry x="20" y="380" width="120" height="80" as="geometry" />
        </mxCell>
        <mxCell id="g3DRVWfjHYgkhgWcibjf-77" value="ユーザー連絡" style="rounded=1;whiteSpace=wrap;html=1;" parent="g3DRVWfjHYgkhgWcibjf-12" vertex="1">
          <mxGeometry x="40" y="650" width="80" height="40" as="geometry" />
        </mxCell>
        <mxCell id="g3DRVWfjHYgkhgWcibjf-94" value="" style="edgeStyle=orthogonalEdgeStyle;rounded=0;orthogonalLoop=1;jettySize=auto;html=1;" parent="g3DRVWfjHYgkhgWcibjf-12" source="g3DRVWfjHYgkhgWcibjf-92" target="g3DRVWfjHYgkhgWcibjf-77" edge="1">
          <mxGeometry relative="1" as="geometry" />
        </mxCell>
        <mxCell id="g3DRVWfjHYgkhgWcibjf-92" value="受理" style="rounded=1;whiteSpace=wrap;html=1;" parent="g3DRVWfjHYgkhgWcibjf-12" vertex="1">
          <mxGeometry x="40" y="555" width="80" height="40" as="geometry" />
        </mxCell>
        <mxCell id="g3DRVWfjHYgkhgWcibjf-69" style="edgeStyle=orthogonalEdgeStyle;rounded=0;orthogonalLoop=1;jettySize=auto;html=1;entryX=0.5;entryY=0;entryDx=0;entryDy=0;exitX=0;exitY=1;exitDx=0;exitDy=0;" parent="g3DRVWfjHYgkhgWcibjf-1" source="g3DRVWfjHYgkhgWcibjf-65" target="g3DRVWfjHYgkhgWcibjf-68" edge="1">
          <mxGeometry relative="1" as="geometry">
            <Array as="points">
              <mxPoint x="380" y="480" />
              <mxPoint x="200" y="480" />
            </Array>
          </mxGeometry>
        </mxCell>
        <mxCell id="g3DRVWfjHYgkhgWcibjf-70" value="する" style="edgeLabel;html=1;align=center;verticalAlign=middle;resizable=0;points=[];" parent="g3DRVWfjHYgkhgWcibjf-69" vertex="1" connectable="0">
          <mxGeometry relative="1" as="geometry">
            <mxPoint as="offset" />
          </mxGeometry>
        </mxCell>
        <mxCell id="g3DRVWfjHYgkhgWcibjf-90" style="edgeStyle=orthogonalEdgeStyle;rounded=0;orthogonalLoop=1;jettySize=auto;html=1;entryX=1;entryY=0.5;entryDx=0;entryDy=0;" parent="g3DRVWfjHYgkhgWcibjf-1" source="g3DRVWfjHYgkhgWcibjf-65" target="g3DRVWfjHYgkhgWcibjf-43" edge="1">
          <mxGeometry relative="1" as="geometry">
            <Array as="points">
              <mxPoint x="480" y="530" />
            </Array>
          </mxGeometry>
        </mxCell>
        <mxCell id="g3DRVWfjHYgkhgWcibjf-91" value="しない" style="edgeLabel;html=1;align=center;verticalAlign=middle;resizable=0;points=[];" parent="g3DRVWfjHYgkhgWcibjf-90" vertex="1" connectable="0">
          <mxGeometry x="0.2298" y="-1" relative="1" as="geometry">
            <mxPoint as="offset" />
          </mxGeometry>
        </mxCell>
        <mxCell id="g3DRVWfjHYgkhgWcibjf-93" style="edgeStyle=orthogonalEdgeStyle;rounded=0;orthogonalLoop=1;jettySize=auto;html=1;entryX=0;entryY=0.5;entryDx=0;entryDy=0;" parent="g3DRVWfjHYgkhgWcibjf-1" source="g3DRVWfjHYgkhgWcibjf-43" target="g3DRVWfjHYgkhgWcibjf-92" edge="1">
          <mxGeometry relative="1" as="geometry">
            <Array as="points">
              <mxPoint x="350" y="595" />
            </Array>
          </mxGeometry>
        </mxCell>
        <mxCell id="g3DRVWfjHYgkhgWcibjf-97" style="edgeStyle=orthogonalEdgeStyle;rounded=0;orthogonalLoop=1;jettySize=auto;html=1;entryX=1;entryY=0.5;entryDx=0;entryDy=0;" parent="g3DRVWfjHYgkhgWcibjf-1" source="g3DRVWfjHYgkhgWcibjf-77" target="g3DRVWfjHYgkhgWcibjf-95" edge="1">
          <mxGeometry relative="1" as="geometry" />
        </mxCell>
        <mxCell id="7H1mrtTjPdxdWs6vdAKE-1" value="" style="shape=table;startSize=0;container=1;collapsible=0;childLayout=tableLayout;fontSize=16;movable=1;resizable=1;rotatable=1;deletable=1;editable=1;locked=0;connectable=1;" vertex="1" parent="1">
          <mxGeometry x="30" y="30" width="780" height="70" as="geometry" />
        </mxCell>
        <mxCell id="7H1mrtTjPdxdWs6vdAKE-2" value="" style="shape=tableRow;horizontal=0;startSize=0;swimlaneHead=0;swimlaneBody=0;strokeColor=inherit;top=0;left=0;bottom=0;right=0;collapsible=0;dropTarget=0;fillColor=none;points=[[0,0.5],[1,0.5]];portConstraint=eastwest;fontSize=16;movable=1;resizable=1;rotatable=1;deletable=1;editable=1;locked=0;connectable=1;" vertex="1" parent="7H1mrtTjPdxdWs6vdAKE-1">
          <mxGeometry width="780" height="36" as="geometry" />
        </mxCell>
        <mxCell id="7H1mrtTjPdxdWs6vdAKE-3" value="文書名" style="shape=partialRectangle;html=1;whiteSpace=wrap;connectable=1;strokeColor=inherit;overflow=hidden;fillColor=none;top=0;left=0;bottom=0;right=0;pointerEvents=1;fontSize=16;movable=1;resizable=1;rotatable=1;deletable=1;editable=1;locked=0;" vertex="1" parent="7H1mrtTjPdxdWs6vdAKE-2">
          <mxGeometry width="380" height="36" as="geometry">
            <mxRectangle width="380" height="36" as="alternateBounds" />
          </mxGeometry>
        </mxCell>
        <mxCell id="7H1mrtTjPdxdWs6vdAKE-4" value="作成者" style="shape=partialRectangle;html=1;whiteSpace=wrap;connectable=1;strokeColor=inherit;overflow=hidden;fillColor=none;top=0;left=0;bottom=0;right=0;pointerEvents=1;fontSize=16;movable=1;resizable=1;rotatable=1;deletable=1;editable=1;locked=0;" vertex="1" parent="7H1mrtTjPdxdWs6vdAKE-2">
          <mxGeometry x="380" width="100" height="36" as="geometry">
            <mxRectangle width="100" height="36" as="alternateBounds" />
          </mxGeometry>
        </mxCell>
        <mxCell id="7H1mrtTjPdxdWs6vdAKE-5" value="作成日" style="shape=partialRectangle;html=1;whiteSpace=wrap;connectable=1;strokeColor=inherit;overflow=hidden;fillColor=none;top=0;left=0;bottom=0;right=0;pointerEvents=1;fontSize=16;movable=1;resizable=1;rotatable=1;deletable=1;editable=1;locked=0;" vertex="1" parent="7H1mrtTjPdxdWs6vdAKE-2">
          <mxGeometry x="480" width="100" height="36" as="geometry">
            <mxRectangle width="100" height="36" as="alternateBounds" />
          </mxGeometry>
        </mxCell>
        <mxCell id="7H1mrtTjPdxdWs6vdAKE-6" value="更新者" style="shape=partialRectangle;html=1;whiteSpace=wrap;connectable=1;strokeColor=inherit;overflow=hidden;fillColor=none;top=0;left=0;bottom=0;right=0;pointerEvents=1;fontSize=16;movable=1;resizable=1;rotatable=1;deletable=1;editable=1;locked=0;" vertex="1" parent="7H1mrtTjPdxdWs6vdAKE-2">
          <mxGeometry x="580" width="100" height="36" as="geometry">
            <mxRectangle width="100" height="36" as="alternateBounds" />
          </mxGeometry>
        </mxCell>
        <mxCell id="7H1mrtTjPdxdWs6vdAKE-7" value="更新日" style="shape=partialRectangle;html=1;whiteSpace=wrap;connectable=1;strokeColor=inherit;overflow=hidden;fillColor=none;top=0;left=0;bottom=0;right=0;pointerEvents=1;fontSize=16;movable=1;resizable=1;rotatable=1;deletable=1;editable=1;locked=0;" vertex="1" parent="7H1mrtTjPdxdWs6vdAKE-2">
          <mxGeometry x="680" width="100" height="36" as="geometry">
            <mxRectangle width="100" height="36" as="alternateBounds" />
          </mxGeometry>
        </mxCell>
        <mxCell id="7H1mrtTjPdxdWs6vdAKE-8" value="" style="shape=tableRow;horizontal=0;startSize=0;swimlaneHead=0;swimlaneBody=0;strokeColor=inherit;top=0;left=0;bottom=0;right=0;collapsible=0;dropTarget=0;fillColor=none;points=[[0,0.5],[1,0.5]];portConstraint=eastwest;fontSize=16;movable=1;resizable=1;rotatable=1;deletable=1;editable=1;locked=0;connectable=1;" vertex="1" parent="7H1mrtTjPdxdWs6vdAKE-1">
          <mxGeometry y="36" width="780" height="34" as="geometry" />
        </mxCell>
        <mxCell id="7H1mrtTjPdxdWs6vdAKE-9" value="サポートデスク問い合わせ対応業務" style="shape=partialRectangle;html=1;whiteSpace=wrap;connectable=1;strokeColor=inherit;overflow=hidden;fillColor=none;top=0;left=0;bottom=0;right=0;pointerEvents=1;fontSize=16;movable=1;resizable=1;rotatable=1;deletable=1;editable=1;locked=0;" vertex="1" parent="7H1mrtTjPdxdWs6vdAKE-8">
          <mxGeometry width="380" height="34" as="geometry">
            <mxRectangle width="380" height="34" as="alternateBounds" />
          </mxGeometry>
        </mxCell>
        <mxCell id="7H1mrtTjPdxdWs6vdAKE-10" value="髙山" style="shape=partialRectangle;html=1;whiteSpace=wrap;connectable=1;strokeColor=inherit;overflow=hidden;fillColor=none;top=0;left=0;bottom=0;right=0;pointerEvents=1;fontSize=16;movable=1;resizable=1;rotatable=1;deletable=1;editable=1;locked=0;" vertex="1" parent="7H1mrtTjPdxdWs6vdAKE-8">
          <mxGeometry x="380" width="100" height="34" as="geometry">
            <mxRectangle width="100" height="34" as="alternateBounds" />
          </mxGeometry>
        </mxCell>
        <mxCell id="7H1mrtTjPdxdWs6vdAKE-11" value="2024/12/05" style="shape=partialRectangle;html=1;whiteSpace=wrap;connectable=1;strokeColor=inherit;overflow=hidden;fillColor=none;top=0;left=0;bottom=0;right=0;pointerEvents=1;fontSize=16;movable=1;resizable=1;rotatable=1;deletable=1;editable=1;locked=0;" vertex="1" parent="7H1mrtTjPdxdWs6vdAKE-8">
          <mxGeometry x="480" width="100" height="34" as="geometry">
            <mxRectangle width="100" height="34" as="alternateBounds" />
          </mxGeometry>
        </mxCell>
        <mxCell id="7H1mrtTjPdxdWs6vdAKE-12" style="shape=partialRectangle;html=1;whiteSpace=wrap;connectable=1;strokeColor=inherit;overflow=hidden;fillColor=none;top=0;left=0;bottom=0;right=0;pointerEvents=1;fontSize=16;movable=1;resizable=1;rotatable=1;deletable=1;editable=1;locked=0;" vertex="1" parent="7H1mrtTjPdxdWs6vdAKE-8">
          <mxGeometry x="580" width="100" height="34" as="geometry">
            <mxRectangle width="100" height="34" as="alternateBounds" />
          </mxGeometry>
        </mxCell>
        <mxCell id="7H1mrtTjPdxdWs6vdAKE-13" style="shape=partialRectangle;html=1;whiteSpace=wrap;connectable=1;strokeColor=inherit;overflow=hidden;fillColor=none;top=0;left=0;bottom=0;right=0;pointerEvents=1;fontSize=16;movable=1;resizable=1;rotatable=1;deletable=1;editable=1;locked=0;" vertex="1" parent="7H1mrtTjPdxdWs6vdAKE-8">
          <mxGeometry x="680" width="100" height="34" as="geometry">
            <mxRectangle width="100" height="34" as="alternateBounds" />
          </mxGeometry>
        </mxCell>
      </root>
    </mxGraphModel>
  </diagram>
  <diagram id="THd4Q6wA9nppiSrMKL8O" name="NICE PC">
    <mxGraphModel dx="1434" dy="836" grid="1" gridSize="10" guides="1" tooltips="1" connect="1" arrows="1" fold="1" page="1" pageScale="1" pageWidth="827" pageHeight="1169" math="0" shadow="0">
      <root>
        <mxCell id="0" />
        <mxCell id="1" parent="0" />
        <mxCell id="SpHLkJ_fqaZLLOqYbqvI-1" value="NICE PCの再起動作業 （毎月1回）" style="swimlane;childLayout=stackLayout;resizeParent=1;resizeParentMax=0;startSize=20;html=1;" vertex="1" parent="1">
          <mxGeometry x="40.000000000000455" y="20" width="360" height="480" as="geometry" />
        </mxCell>
        <mxCell id="SpHLkJ_fqaZLLOqYbqvI-2" value="髙山" style="swimlane;startSize=20;html=1;" vertex="1" parent="SpHLkJ_fqaZLLOqYbqvI-1">
          <mxGeometry y="20" width="120" height="460" as="geometry" />
        </mxCell>
        <mxCell id="SpHLkJ_fqaZLLOqYbqvI-5" value="再起動実施の連絡" style="rounded=1;whiteSpace=wrap;html=1;" vertex="1" parent="SpHLkJ_fqaZLLOqYbqvI-2">
          <mxGeometry x="20" y="30" width="80" height="40" as="geometry" />
        </mxCell>
        <mxCell id="SpHLkJ_fqaZLLOqYbqvI-10" value="再起動の実施" style="rounded=1;whiteSpace=wrap;html=1;" vertex="1" parent="SpHLkJ_fqaZLLOqYbqvI-2">
          <mxGeometry x="20" y="110" width="80" height="40" as="geometry" />
        </mxCell>
        <mxCell id="SpHLkJ_fqaZLLOqYbqvI-19" value="" style="edgeStyle=orthogonalEdgeStyle;rounded=0;orthogonalLoop=1;jettySize=auto;html=1;" edge="1" parent="SpHLkJ_fqaZLLOqYbqvI-2" source="SpHLkJ_fqaZLLOqYbqvI-15" target="SpHLkJ_fqaZLLOqYbqvI-17">
          <mxGeometry relative="1" as="geometry" />
        </mxCell>
        <mxCell id="SpHLkJ_fqaZLLOqYbqvI-15" value="起動確認" style="rounded=1;whiteSpace=wrap;html=1;" vertex="1" parent="SpHLkJ_fqaZLLOqYbqvI-2">
          <mxGeometry x="20" y="250" width="80" height="40" as="geometry" />
        </mxCell>
        <mxCell id="SpHLkJ_fqaZLLOqYbqvI-17" value="完了報告" style="rounded=1;whiteSpace=wrap;html=1;" vertex="1" parent="SpHLkJ_fqaZLLOqYbqvI-2">
          <mxGeometry x="20" y="320" width="80" height="40" as="geometry" />
        </mxCell>
        <mxCell id="SpHLkJ_fqaZLLOqYbqvI-3" value="石井さん" style="swimlane;startSize=20;html=1;" vertex="1" parent="SpHLkJ_fqaZLLOqYbqvI-1">
          <mxGeometry x="120" y="20" width="120" height="460" as="geometry" />
        </mxCell>
        <mxCell id="SpHLkJ_fqaZLLOqYbqvI-8" value="承認" style="rounded=1;whiteSpace=wrap;html=1;" vertex="1" parent="SpHLkJ_fqaZLLOqYbqvI-3">
          <mxGeometry x="20" y="30" width="80" height="40" as="geometry" />
        </mxCell>
        <mxCell id="SpHLkJ_fqaZLLOqYbqvI-20" value="承認" style="rounded=1;whiteSpace=wrap;html=1;" vertex="1" parent="SpHLkJ_fqaZLLOqYbqvI-3">
          <mxGeometry x="20" y="320" width="80" height="40" as="geometry" />
        </mxCell>
        <mxCell id="SpHLkJ_fqaZLLOqYbqvI-4" value="NICE PC" style="swimlane;startSize=20;html=1;" vertex="1" parent="SpHLkJ_fqaZLLOqYbqvI-1">
          <mxGeometry x="240" y="20" width="120" height="460" as="geometry" />
        </mxCell>
        <mxCell id="SpHLkJ_fqaZLLOqYbqvI-13" value="再起動" style="shape=cylinder3;whiteSpace=wrap;html=1;boundedLbl=1;backgroundOutline=1;size=15;" vertex="1" parent="SpHLkJ_fqaZLLOqYbqvI-4">
          <mxGeometry x="30" y="160" width="60" height="50" as="geometry" />
        </mxCell>
        <mxCell id="SpHLkJ_fqaZLLOqYbqvI-9" value="" style="edgeStyle=orthogonalEdgeStyle;rounded=0;orthogonalLoop=1;jettySize=auto;html=1;" edge="1" parent="SpHLkJ_fqaZLLOqYbqvI-1" source="SpHLkJ_fqaZLLOqYbqvI-5" target="SpHLkJ_fqaZLLOqYbqvI-8">
          <mxGeometry relative="1" as="geometry" />
        </mxCell>
        <mxCell id="SpHLkJ_fqaZLLOqYbqvI-11" style="edgeStyle=orthogonalEdgeStyle;rounded=0;orthogonalLoop=1;jettySize=auto;html=1;entryX=1;entryY=0.5;entryDx=0;entryDy=0;" edge="1" parent="SpHLkJ_fqaZLLOqYbqvI-1" source="SpHLkJ_fqaZLLOqYbqvI-8" target="SpHLkJ_fqaZLLOqYbqvI-10">
          <mxGeometry relative="1" as="geometry">
            <Array as="points">
              <mxPoint x="180" y="150" />
            </Array>
          </mxGeometry>
        </mxCell>
        <mxCell id="SpHLkJ_fqaZLLOqYbqvI-14" style="edgeStyle=orthogonalEdgeStyle;rounded=0;orthogonalLoop=1;jettySize=auto;html=1;entryX=0;entryY=0;entryDx=0;entryDy=30;entryPerimeter=0;" edge="1" parent="SpHLkJ_fqaZLLOqYbqvI-1" source="SpHLkJ_fqaZLLOqYbqvI-10" target="SpHLkJ_fqaZLLOqYbqvI-13">
          <mxGeometry relative="1" as="geometry">
            <Array as="points">
              <mxPoint x="60" y="210" />
            </Array>
          </mxGeometry>
        </mxCell>
        <mxCell id="SpHLkJ_fqaZLLOqYbqvI-16" style="edgeStyle=orthogonalEdgeStyle;rounded=0;orthogonalLoop=1;jettySize=auto;html=1;entryX=1;entryY=0.5;entryDx=0;entryDy=0;" edge="1" parent="SpHLkJ_fqaZLLOqYbqvI-1" source="SpHLkJ_fqaZLLOqYbqvI-13" target="SpHLkJ_fqaZLLOqYbqvI-15">
          <mxGeometry relative="1" as="geometry">
            <Array as="points">
              <mxPoint x="300" y="290" />
            </Array>
          </mxGeometry>
        </mxCell>
        <mxCell id="SpHLkJ_fqaZLLOqYbqvI-21" style="edgeStyle=orthogonalEdgeStyle;rounded=0;orthogonalLoop=1;jettySize=auto;html=1;" edge="1" parent="SpHLkJ_fqaZLLOqYbqvI-1" source="SpHLkJ_fqaZLLOqYbqvI-17" target="SpHLkJ_fqaZLLOqYbqvI-20">
          <mxGeometry relative="1" as="geometry" />
        </mxCell>
        <mxCell id="SpHLkJ_fqaZLLOqYbqvI-22" value="NICE PCの接続不良対応&amp;nbsp;" style="swimlane;childLayout=stackLayout;resizeParent=1;resizeParentMax=0;startSize=20;html=1;" vertex="1" parent="1">
          <mxGeometry x="450.00000000000045" y="20" width="360" height="260" as="geometry" />
        </mxCell>
        <mxCell id="SpHLkJ_fqaZLLOqYbqvI-39" value="ユーザー" style="swimlane;startSize=20;html=1;" vertex="1" parent="SpHLkJ_fqaZLLOqYbqvI-22">
          <mxGeometry y="20" width="120" height="240" as="geometry" />
        </mxCell>
        <mxCell id="SpHLkJ_fqaZLLOqYbqvI-40" value="接続不良連絡" style="rounded=1;whiteSpace=wrap;html=1;" vertex="1" parent="SpHLkJ_fqaZLLOqYbqvI-39">
          <mxGeometry x="20" y="30" width="80" height="40" as="geometry" />
        </mxCell>
        <mxCell id="SpHLkJ_fqaZLLOqYbqvI-28" value="完了報告" style="rounded=1;whiteSpace=wrap;html=1;" vertex="1" parent="SpHLkJ_fqaZLLOqYbqvI-39">
          <mxGeometry x="20" y="170" width="80" height="40" as="geometry" />
        </mxCell>
        <mxCell id="SpHLkJ_fqaZLLOqYbqvI-23" value="髙山" style="swimlane;startSize=20;html=1;" vertex="1" parent="SpHLkJ_fqaZLLOqYbqvI-22">
          <mxGeometry x="120" y="20" width="120" height="240" as="geometry" />
        </mxCell>
        <mxCell id="SpHLkJ_fqaZLLOqYbqvI-42" value="" style="edgeStyle=orthogonalEdgeStyle;rounded=0;orthogonalLoop=1;jettySize=auto;html=1;" edge="1" parent="SpHLkJ_fqaZLLOqYbqvI-23" source="SpHLkJ_fqaZLLOqYbqvI-24" target="SpHLkJ_fqaZLLOqYbqvI-25">
          <mxGeometry relative="1" as="geometry" />
        </mxCell>
        <mxCell id="SpHLkJ_fqaZLLOqYbqvI-24" value="受理" style="rounded=1;whiteSpace=wrap;html=1;" vertex="1" parent="SpHLkJ_fqaZLLOqYbqvI-23">
          <mxGeometry x="20" y="30" width="80" height="40" as="geometry" />
        </mxCell>
        <mxCell id="SpHLkJ_fqaZLLOqYbqvI-25" value="再起動の実施" style="rounded=1;whiteSpace=wrap;html=1;" vertex="1" parent="SpHLkJ_fqaZLLOqYbqvI-23">
          <mxGeometry x="20" y="100" width="80" height="40" as="geometry" />
        </mxCell>
        <mxCell id="SpHLkJ_fqaZLLOqYbqvI-27" value="起動確認" style="rounded=1;whiteSpace=wrap;html=1;" vertex="1" parent="SpHLkJ_fqaZLLOqYbqvI-23">
          <mxGeometry x="20" y="170" width="80" height="40" as="geometry" />
        </mxCell>
        <mxCell id="SpHLkJ_fqaZLLOqYbqvI-32" value="NICE PC" style="swimlane;startSize=20;html=1;" vertex="1" parent="SpHLkJ_fqaZLLOqYbqvI-22">
          <mxGeometry x="240" y="20" width="120" height="240" as="geometry" />
        </mxCell>
        <mxCell id="SpHLkJ_fqaZLLOqYbqvI-33" value="再起動" style="shape=cylinder3;whiteSpace=wrap;html=1;boundedLbl=1;backgroundOutline=1;size=15;" vertex="1" parent="SpHLkJ_fqaZLLOqYbqvI-32">
          <mxGeometry x="30" y="95" width="60" height="50" as="geometry" />
        </mxCell>
        <mxCell id="SpHLkJ_fqaZLLOqYbqvI-34" value="" style="edgeStyle=orthogonalEdgeStyle;rounded=0;orthogonalLoop=1;jettySize=auto;html=1;" edge="1" parent="SpHLkJ_fqaZLLOqYbqvI-22" source="SpHLkJ_fqaZLLOqYbqvI-24" target="SpHLkJ_fqaZLLOqYbqvI-30">
          <mxGeometry relative="1" as="geometry" />
        </mxCell>
        <mxCell id="SpHLkJ_fqaZLLOqYbqvI-35" style="edgeStyle=orthogonalEdgeStyle;rounded=0;orthogonalLoop=1;jettySize=auto;html=1;entryX=1;entryY=0.5;entryDx=0;entryDy=0;" edge="1" parent="SpHLkJ_fqaZLLOqYbqvI-22" source="SpHLkJ_fqaZLLOqYbqvI-30" target="SpHLkJ_fqaZLLOqYbqvI-25">
          <mxGeometry relative="1" as="geometry">
            <Array as="points">
              <mxPoint x="180" y="150" />
            </Array>
          </mxGeometry>
        </mxCell>
        <mxCell id="SpHLkJ_fqaZLLOqYbqvI-38" style="edgeStyle=orthogonalEdgeStyle;rounded=0;orthogonalLoop=1;jettySize=auto;html=1;" edge="1" parent="SpHLkJ_fqaZLLOqYbqvI-22" source="SpHLkJ_fqaZLLOqYbqvI-28" target="SpHLkJ_fqaZLLOqYbqvI-31">
          <mxGeometry relative="1" as="geometry" />
        </mxCell>
        <mxCell id="SpHLkJ_fqaZLLOqYbqvI-41" value="" style="edgeStyle=orthogonalEdgeStyle;rounded=0;orthogonalLoop=1;jettySize=auto;html=1;" edge="1" parent="SpHLkJ_fqaZLLOqYbqvI-22" source="SpHLkJ_fqaZLLOqYbqvI-40" target="SpHLkJ_fqaZLLOqYbqvI-24">
          <mxGeometry relative="1" as="geometry" />
        </mxCell>
        <mxCell id="SpHLkJ_fqaZLLOqYbqvI-43" value="" style="edgeStyle=orthogonalEdgeStyle;rounded=0;orthogonalLoop=1;jettySize=auto;html=1;" edge="1" parent="SpHLkJ_fqaZLLOqYbqvI-22" source="SpHLkJ_fqaZLLOqYbqvI-25" target="SpHLkJ_fqaZLLOqYbqvI-33">
          <mxGeometry relative="1" as="geometry" />
        </mxCell>
        <mxCell id="SpHLkJ_fqaZLLOqYbqvI-44" style="edgeStyle=orthogonalEdgeStyle;rounded=0;orthogonalLoop=1;jettySize=auto;html=1;entryX=1;entryY=0.5;entryDx=0;entryDy=0;" edge="1" parent="SpHLkJ_fqaZLLOqYbqvI-22" source="SpHLkJ_fqaZLLOqYbqvI-33" target="SpHLkJ_fqaZLLOqYbqvI-27">
          <mxGeometry relative="1" as="geometry">
            <Array as="points">
              <mxPoint x="300" y="210" />
            </Array>
          </mxGeometry>
        </mxCell>
        <mxCell id="SpHLkJ_fqaZLLOqYbqvI-26" value="" style="edgeStyle=orthogonalEdgeStyle;rounded=0;orthogonalLoop=1;jettySize=auto;html=1;" edge="1" parent="SpHLkJ_fqaZLLOqYbqvI-22" source="SpHLkJ_fqaZLLOqYbqvI-27" target="SpHLkJ_fqaZLLOqYbqvI-28">
          <mxGeometry relative="1" as="geometry" />
        </mxCell>
      </root>
    </mxGraphModel>
  </diagram>
  <diagram id="-DQrWjM5ZStVs8oi6C8g" name="サーバー室の鍵貸出">
    <mxGraphModel dx="989" dy="577" grid="1" gridSize="10" guides="1" tooltips="1" connect="1" arrows="1" fold="1" page="1" pageScale="1" pageWidth="827" pageHeight="1169" math="0" shadow="0">
      <root>
        <mxCell id="0" />
        <mxCell id="1" parent="0" />
        <mxCell id="k4hzNwZwsEanAvwcZsEZ-1" value="サーバー室の鍵貸出" style="swimlane;childLayout=stackLayout;resizeParent=1;resizeParentMax=0;startSize=20;html=1;" vertex="1" parent="1">
          <mxGeometry x="30.000000000000455" y="20" width="420" height="480" as="geometry" />
        </mxCell>
        <mxCell id="k4hzNwZwsEanAvwcZsEZ-2" value="ユーザー" style="swimlane;startSize=20;html=1;" vertex="1" parent="k4hzNwZwsEanAvwcZsEZ-1">
          <mxGeometry y="20" width="120" height="460" as="geometry" />
        </mxCell>
        <mxCell id="k4hzNwZwsEanAvwcZsEZ-5" value="貸出依頼" style="rounded=1;whiteSpace=wrap;html=1;" vertex="1" parent="k4hzNwZwsEanAvwcZsEZ-2">
          <mxGeometry x="22.5" y="61" width="77.5" height="30" as="geometry" />
        </mxCell>
        <mxCell id="k4hzNwZwsEanAvwcZsEZ-35" value="返却" style="rounded=1;whiteSpace=wrap;html=1;" vertex="1" parent="k4hzNwZwsEanAvwcZsEZ-2">
          <mxGeometry x="22.5" y="230" width="77.5" height="30" as="geometry" />
        </mxCell>
        <mxCell id="k4hzNwZwsEanAvwcZsEZ-7" value="" style="edgeStyle=orthogonalEdgeStyle;rounded=0;orthogonalLoop=1;jettySize=auto;html=1;" edge="1" parent="k4hzNwZwsEanAvwcZsEZ-1" source="k4hzNwZwsEanAvwcZsEZ-5" target="k4hzNwZwsEanAvwcZsEZ-6">
          <mxGeometry relative="1" as="geometry">
            <Array as="points">
              <mxPoint x="61" y="145" />
            </Array>
          </mxGeometry>
        </mxCell>
        <mxCell id="k4hzNwZwsEanAvwcZsEZ-12" style="edgeStyle=orthogonalEdgeStyle;rounded=0;orthogonalLoop=1;jettySize=auto;html=1;entryX=0;entryY=0.5;entryDx=0;entryDy=0;" edge="1" parent="k4hzNwZwsEanAvwcZsEZ-1" source="k4hzNwZwsEanAvwcZsEZ-5" target="k4hzNwZwsEanAvwcZsEZ-10">
          <mxGeometry relative="1" as="geometry" />
        </mxCell>
        <mxCell id="k4hzNwZwsEanAvwcZsEZ-18" value="" style="edgeStyle=orthogonalEdgeStyle;rounded=0;orthogonalLoop=1;jettySize=auto;html=1;" edge="1" parent="k4hzNwZwsEanAvwcZsEZ-1" source="k4hzNwZwsEanAvwcZsEZ-13" target="k4hzNwZwsEanAvwcZsEZ-6">
          <mxGeometry relative="1" as="geometry" />
        </mxCell>
        <mxCell id="k4hzNwZwsEanAvwcZsEZ-3" value="髙山" style="swimlane;startSize=20;html=1;" vertex="1" parent="k4hzNwZwsEanAvwcZsEZ-1">
          <mxGeometry x="120" y="20" width="150" height="460" as="geometry" />
        </mxCell>
        <mxCell id="k4hzNwZwsEanAvwcZsEZ-32" value="" style="edgeStyle=orthogonalEdgeStyle;rounded=0;orthogonalLoop=1;jettySize=auto;html=1;" edge="1" parent="k4hzNwZwsEanAvwcZsEZ-3" source="k4hzNwZwsEanAvwcZsEZ-6" target="k4hzNwZwsEanAvwcZsEZ-30">
          <mxGeometry relative="1" as="geometry" />
        </mxCell>
        <mxCell id="k4hzNwZwsEanAvwcZsEZ-6" value="受理" style="rounded=1;whiteSpace=wrap;html=1;" vertex="1" parent="k4hzNwZwsEanAvwcZsEZ-3">
          <mxGeometry x="36.25" y="110" width="77.5" height="30" as="geometry" />
        </mxCell>
        <mxCell id="k4hzNwZwsEanAvwcZsEZ-20" value="受け渡し" style="rounded=1;whiteSpace=wrap;html=1;" vertex="1" parent="k4hzNwZwsEanAvwcZsEZ-3">
          <mxGeometry x="36.25" y="230" width="77.5" height="30" as="geometry" />
        </mxCell>
        <mxCell id="k4hzNwZwsEanAvwcZsEZ-34" value="" style="edgeStyle=orthogonalEdgeStyle;rounded=0;orthogonalLoop=1;jettySize=auto;html=1;" edge="1" parent="k4hzNwZwsEanAvwcZsEZ-3" source="k4hzNwZwsEanAvwcZsEZ-30" target="k4hzNwZwsEanAvwcZsEZ-20">
          <mxGeometry relative="1" as="geometry" />
        </mxCell>
        <mxCell id="k4hzNwZwsEanAvwcZsEZ-30" value="管理表に&lt;div&gt;記載する&lt;/div&gt;" style="rounded=1;whiteSpace=wrap;html=1;" vertex="1" parent="k4hzNwZwsEanAvwcZsEZ-3">
          <mxGeometry x="33.13" y="170" width="83.75" height="30" as="geometry" />
        </mxCell>
        <mxCell id="k4hzNwZwsEanAvwcZsEZ-40" value="" style="edgeStyle=orthogonalEdgeStyle;rounded=0;orthogonalLoop=1;jettySize=auto;html=1;" edge="1" parent="k4hzNwZwsEanAvwcZsEZ-3" source="k4hzNwZwsEanAvwcZsEZ-37" target="k4hzNwZwsEanAvwcZsEZ-39">
          <mxGeometry relative="1" as="geometry" />
        </mxCell>
        <mxCell id="k4hzNwZwsEanAvwcZsEZ-37" value="受け取り" style="rounded=1;whiteSpace=wrap;html=1;" vertex="1" parent="k4hzNwZwsEanAvwcZsEZ-3">
          <mxGeometry x="39.379999999999995" y="290" width="77.5" height="30" as="geometry" />
        </mxCell>
        <mxCell id="k4hzNwZwsEanAvwcZsEZ-39" value="管理表に&lt;div&gt;記載する&lt;/div&gt;" style="rounded=1;whiteSpace=wrap;html=1;" vertex="1" parent="k4hzNwZwsEanAvwcZsEZ-3">
          <mxGeometry x="39.38" y="350" width="77.5" height="30" as="geometry" />
        </mxCell>
        <mxCell id="k4hzNwZwsEanAvwcZsEZ-4" value="AJS" style="swimlane;startSize=20;html=1;" vertex="1" parent="k4hzNwZwsEanAvwcZsEZ-1">
          <mxGeometry x="270" y="20" width="150" height="460" as="geometry" />
        </mxCell>
        <mxCell id="k4hzNwZwsEanAvwcZsEZ-17" value="" style="edgeStyle=orthogonalEdgeStyle;rounded=0;orthogonalLoop=1;jettySize=auto;html=1;" edge="1" parent="k4hzNwZwsEanAvwcZsEZ-4" source="k4hzNwZwsEanAvwcZsEZ-10" target="k4hzNwZwsEanAvwcZsEZ-13">
          <mxGeometry relative="1" as="geometry" />
        </mxCell>
        <mxCell id="k4hzNwZwsEanAvwcZsEZ-10" value="貸出依頼" style="rounded=1;whiteSpace=wrap;html=1;" vertex="1" parent="k4hzNwZwsEanAvwcZsEZ-4">
          <mxGeometry x="36.25" y="61" width="77.5" height="30" as="geometry" />
        </mxCell>
        <mxCell id="k4hzNwZwsEanAvwcZsEZ-13" value="連携" style="rounded=1;whiteSpace=wrap;html=1;" vertex="1" parent="k4hzNwZwsEanAvwcZsEZ-4">
          <mxGeometry x="36.25" y="110" width="77.5" height="30" as="geometry" />
        </mxCell>
        <mxCell id="k4hzNwZwsEanAvwcZsEZ-36" value="" style="edgeStyle=orthogonalEdgeStyle;rounded=0;orthogonalLoop=1;jettySize=auto;html=1;" edge="1" parent="k4hzNwZwsEanAvwcZsEZ-1" source="k4hzNwZwsEanAvwcZsEZ-20" target="k4hzNwZwsEanAvwcZsEZ-35">
          <mxGeometry relative="1" as="geometry" />
        </mxCell>
        <mxCell id="k4hzNwZwsEanAvwcZsEZ-38" style="edgeStyle=orthogonalEdgeStyle;rounded=0;orthogonalLoop=1;jettySize=auto;html=1;entryX=0;entryY=0.5;entryDx=0;entryDy=0;" edge="1" parent="k4hzNwZwsEanAvwcZsEZ-1" source="k4hzNwZwsEanAvwcZsEZ-35" target="k4hzNwZwsEanAvwcZsEZ-37">
          <mxGeometry relative="1" as="geometry">
            <Array as="points">
              <mxPoint x="60" y="325" />
            </Array>
          </mxGeometry>
        </mxCell>
      </root>
    </mxGraphModel>
  </diagram>
  <diagram id="rVEbaaHICFNFjljKfhKa" name="三井ビル作業届処理">
    <mxGraphModel dx="1410" dy="823" grid="1" gridSize="10" guides="1" tooltips="1" connect="1" arrows="1" fold="1" page="1" pageScale="1" pageWidth="827" pageHeight="1169" math="0" shadow="0">
      <root>
        <mxCell id="0" />
        <mxCell id="1" parent="0" />
        <mxCell id="Kv-0CneIyU2a7simGzrZ-1" value="三井ビル作業届処理" style="swimlane;childLayout=stackLayout;resizeParent=1;resizeParentMax=0;startSize=20;html=1;" parent="1" vertex="1">
          <mxGeometry x="40.000000000000455" y="40" width="510" height="380" as="geometry" />
        </mxCell>
        <mxCell id="Kv-0CneIyU2a7simGzrZ-2" value="&lt;span style=&quot;white-space: pre;&quot;&gt;&#x9;&lt;/span&gt;パシフィックネット" style="swimlane;startSize=20;html=1;" parent="Kv-0CneIyU2a7simGzrZ-1" vertex="1">
          <mxGeometry y="20" width="170" height="360" as="geometry" />
        </mxCell>
        <mxCell id="Kv-0CneIyU2a7simGzrZ-5" value="入館申請送付" style="rounded=1;whiteSpace=wrap;html=1;" parent="Kv-0CneIyU2a7simGzrZ-2" vertex="1">
          <mxGeometry x="37.5" y="40" width="95" height="50" as="geometry" />
        </mxCell>
        <mxCell id="Kv-0CneIyU2a7simGzrZ-21" value="受け取り" style="rounded=1;whiteSpace=wrap;html=1;" parent="Kv-0CneIyU2a7simGzrZ-2" vertex="1">
          <mxGeometry x="37.5" y="245" width="95" height="50" as="geometry" />
        </mxCell>
        <mxCell id="Kv-0CneIyU2a7simGzrZ-3" value="髙山" style="swimlane;startSize=20;html=1;" parent="Kv-0CneIyU2a7simGzrZ-1" vertex="1">
          <mxGeometry x="170" y="20" width="170" height="360" as="geometry" />
        </mxCell>
        <mxCell id="Kv-0CneIyU2a7simGzrZ-9" value="" style="edgeStyle=orthogonalEdgeStyle;rounded=0;orthogonalLoop=1;jettySize=auto;html=1;" parent="Kv-0CneIyU2a7simGzrZ-3" source="Kv-0CneIyU2a7simGzrZ-6" target="Kv-0CneIyU2a7simGzrZ-8" edge="1">
          <mxGeometry relative="1" as="geometry" />
        </mxCell>
        <mxCell id="Kv-0CneIyU2a7simGzrZ-6" value="必要事項を記載し印刷&lt;div&gt;・住所&lt;/div&gt;&lt;div&gt;・氏名&lt;/div&gt;&lt;div&gt;・連絡先&lt;/div&gt;&lt;div&gt;・押印&lt;/div&gt;" style="rounded=1;whiteSpace=wrap;html=1;" parent="Kv-0CneIyU2a7simGzrZ-3" vertex="1">
          <mxGeometry x="25.63" y="40" width="122.5" height="80" as="geometry" />
        </mxCell>
        <mxCell id="Kv-0CneIyU2a7simGzrZ-8" value="１階防災センター&lt;span style=&quot;background-color: initial;&quot;&gt;へ&lt;/span&gt;&lt;div&gt;&lt;span style=&quot;background-color: initial;&quot;&gt;提出&lt;/span&gt;&lt;/div&gt;" style="rounded=1;whiteSpace=wrap;html=1;" parent="Kv-0CneIyU2a7simGzrZ-3" vertex="1">
          <mxGeometry x="23.75" y="170" width="126.25" height="40" as="geometry" />
        </mxCell>
        <mxCell id="Kv-0CneIyU2a7simGzrZ-18" value="受理印が押されたものを送付" style="rounded=1;whiteSpace=wrap;html=1;" parent="Kv-0CneIyU2a7simGzrZ-3" vertex="1">
          <mxGeometry x="23.75" y="250" width="126.25" height="40" as="geometry" />
        </mxCell>
        <mxCell id="Kv-0CneIyU2a7simGzrZ-11" value="防災センター" style="swimlane;startSize=20;html=1;" parent="Kv-0CneIyU2a7simGzrZ-1" vertex="1">
          <mxGeometry x="340" y="20" width="170" height="360" as="geometry" />
        </mxCell>
        <mxCell id="Kv-0CneIyU2a7simGzrZ-16" value="受理" style="rounded=1;whiteSpace=wrap;html=1;" parent="Kv-0CneIyU2a7simGzrZ-11" vertex="1">
          <mxGeometry x="21.879999999999995" y="170" width="126.25" height="40" as="geometry" />
        </mxCell>
        <mxCell id="Kv-0CneIyU2a7simGzrZ-7" value="" style="edgeStyle=orthogonalEdgeStyle;rounded=0;orthogonalLoop=1;jettySize=auto;html=1;" parent="Kv-0CneIyU2a7simGzrZ-1" source="Kv-0CneIyU2a7simGzrZ-5" target="Kv-0CneIyU2a7simGzrZ-6" edge="1">
          <mxGeometry relative="1" as="geometry">
            <Array as="points">
              <mxPoint x="180" y="85" />
              <mxPoint x="180" y="85" />
            </Array>
          </mxGeometry>
        </mxCell>
        <mxCell id="Kv-0CneIyU2a7simGzrZ-17" value="" style="edgeStyle=orthogonalEdgeStyle;rounded=0;orthogonalLoop=1;jettySize=auto;html=1;" parent="Kv-0CneIyU2a7simGzrZ-1" source="Kv-0CneIyU2a7simGzrZ-8" target="Kv-0CneIyU2a7simGzrZ-16" edge="1">
          <mxGeometry relative="1" as="geometry" />
        </mxCell>
        <mxCell id="Kv-0CneIyU2a7simGzrZ-20" style="edgeStyle=orthogonalEdgeStyle;rounded=0;orthogonalLoop=1;jettySize=auto;html=1;entryX=1;entryY=0.5;entryDx=0;entryDy=0;" parent="Kv-0CneIyU2a7simGzrZ-1" source="Kv-0CneIyU2a7simGzrZ-16" target="Kv-0CneIyU2a7simGzrZ-18" edge="1">
          <mxGeometry relative="1" as="geometry">
            <Array as="points">
              <mxPoint x="430" y="290" />
            </Array>
          </mxGeometry>
        </mxCell>
        <mxCell id="Kv-0CneIyU2a7simGzrZ-22" value="" style="edgeStyle=orthogonalEdgeStyle;rounded=0;orthogonalLoop=1;jettySize=auto;html=1;" parent="Kv-0CneIyU2a7simGzrZ-1" source="Kv-0CneIyU2a7simGzrZ-18" target="Kv-0CneIyU2a7simGzrZ-21" edge="1">
          <mxGeometry relative="1" as="geometry" />
        </mxCell>
      </root>
    </mxGraphModel>
  </diagram>
  <diagram id="qw9PNP8ZIbezQne-FVNv" name="NICE利用申請">
    <mxGraphModel dx="819" dy="478" grid="1" gridSize="10" guides="1" tooltips="1" connect="1" arrows="1" fold="1" page="1" pageScale="1" pageWidth="827" pageHeight="1169" math="0" shadow="0">
      <root>
        <mxCell id="0" />
        <mxCell id="1" parent="0" />
        <mxCell id="S9pNHEyGw1JXpuw_c-To-1" value="NICE利用申請" style="swimlane;childLayout=stackLayout;resizeParent=1;resizeParentMax=0;startSize=20;html=1;" vertex="1" parent="1">
          <mxGeometry x="40.000000000000455" y="40" width="490" height="350" as="geometry" />
        </mxCell>
        <mxCell id="S9pNHEyGw1JXpuw_c-To-2" value="ユーザー" style="swimlane;startSize=20;html=1;" vertex="1" parent="S9pNHEyGw1JXpuw_c-To-1">
          <mxGeometry y="20" width="120" height="330" as="geometry" />
        </mxCell>
        <mxCell id="S9pNHEyGw1JXpuw_c-To-5" value="メールで&lt;div&gt;申請する&lt;/div&gt;" style="rounded=1;whiteSpace=wrap;html=1;" vertex="1" parent="S9pNHEyGw1JXpuw_c-To-2">
          <mxGeometry x="14.999999999999545" y="56" width="90" height="40" as="geometry" />
        </mxCell>
        <mxCell id="S9pNHEyGw1JXpuw_c-To-24" value="設定" style="rounded=1;whiteSpace=wrap;html=1;" vertex="1" parent="S9pNHEyGw1JXpuw_c-To-2">
          <mxGeometry x="14.999999999999545" y="250" width="90" height="40" as="geometry" />
        </mxCell>
        <mxCell id="S9pNHEyGw1JXpuw_c-To-3" value="髙山" style="swimlane;startSize=20;html=1;" vertex="1" parent="S9pNHEyGw1JXpuw_c-To-1">
          <mxGeometry x="120" y="20" width="250" height="330" as="geometry" />
        </mxCell>
        <mxCell id="S9pNHEyGw1JXpuw_c-To-9" value="PC" style="edgeStyle=orthogonalEdgeStyle;rounded=0;orthogonalLoop=1;jettySize=auto;html=1;exitX=0;exitY=1;exitDx=0;exitDy=0;" edge="1" parent="S9pNHEyGw1JXpuw_c-To-3" source="S9pNHEyGw1JXpuw_c-To-8" target="S9pNHEyGw1JXpuw_c-To-10">
          <mxGeometry relative="1" as="geometry">
            <mxPoint x="64.99999999999955" y="190" as="targetPoint" />
          </mxGeometry>
        </mxCell>
        <mxCell id="S9pNHEyGw1JXpuw_c-To-26" style="edgeStyle=orthogonalEdgeStyle;rounded=0;orthogonalLoop=1;jettySize=auto;html=1;exitX=1;exitY=1;exitDx=0;exitDy=0;entryX=0.579;entryY=0.05;entryDx=0;entryDy=0;entryPerimeter=0;" edge="1" parent="S9pNHEyGw1JXpuw_c-To-3" source="S9pNHEyGw1JXpuw_c-To-8" target="S9pNHEyGw1JXpuw_c-To-27">
          <mxGeometry relative="1" as="geometry">
            <mxPoint x="159.99999999999955" y="160" as="targetPoint" />
          </mxGeometry>
        </mxCell>
        <mxCell id="S9pNHEyGw1JXpuw_c-To-28" value="シンクラ" style="edgeLabel;html=1;align=center;verticalAlign=middle;resizable=0;points=[];" vertex="1" connectable="0" parent="S9pNHEyGw1JXpuw_c-To-26">
          <mxGeometry x="0.0726" y="1" relative="1" as="geometry">
            <mxPoint as="offset" />
          </mxGeometry>
        </mxCell>
        <mxCell id="S9pNHEyGw1JXpuw_c-To-8" value="PC&lt;div&gt;or&lt;/div&gt;&lt;div&gt;シンクラ&lt;/div&gt;" style="rhombus;whiteSpace=wrap;html=1;" vertex="1" parent="S9pNHEyGw1JXpuw_c-To-3">
          <mxGeometry x="55" y="36" width="140" height="80" as="geometry" />
        </mxCell>
        <mxCell id="S9pNHEyGw1JXpuw_c-To-12" value="" style="edgeStyle=orthogonalEdgeStyle;rounded=0;orthogonalLoop=1;jettySize=auto;html=1;" edge="1" parent="S9pNHEyGw1JXpuw_c-To-3" source="S9pNHEyGw1JXpuw_c-To-10" target="S9pNHEyGw1JXpuw_c-To-11">
          <mxGeometry relative="1" as="geometry">
            <Array as="points">
              <mxPoint x="55" y="240" />
              <mxPoint x="125" y="240" />
            </Array>
          </mxGeometry>
        </mxCell>
        <mxCell id="S9pNHEyGw1JXpuw_c-To-10" value="利用者名簿に&lt;div&gt;記載&lt;/div&gt;" style="rounded=1;whiteSpace=wrap;html=1;" vertex="1" parent="S9pNHEyGw1JXpuw_c-To-3">
          <mxGeometry x="9.999999999999545" y="180" width="90" height="40" as="geometry" />
        </mxCell>
        <mxCell id="S9pNHEyGw1JXpuw_c-To-11" value="設定マニュアル送付" style="rounded=1;whiteSpace=wrap;html=1;" vertex="1" parent="S9pNHEyGw1JXpuw_c-To-3">
          <mxGeometry x="79.99999999999955" y="250" width="90" height="40" as="geometry" />
        </mxCell>
        <mxCell id="S9pNHEyGw1JXpuw_c-To-27" value="AJSへ連携" style="rounded=1;whiteSpace=wrap;html=1;" vertex="1" parent="S9pNHEyGw1JXpuw_c-To-3">
          <mxGeometry x="129.99999999999955" y="180" width="90" height="40" as="geometry" />
        </mxCell>
        <mxCell id="S9pNHEyGw1JXpuw_c-To-4" value="AJS" style="swimlane;startSize=20;html=1;" vertex="1" parent="S9pNHEyGw1JXpuw_c-To-1">
          <mxGeometry x="370" y="20" width="120" height="330" as="geometry" />
        </mxCell>
        <mxCell id="S9pNHEyGw1JXpuw_c-To-32" value="" style="edgeStyle=orthogonalEdgeStyle;rounded=0;orthogonalLoop=1;jettySize=auto;html=1;" edge="1" parent="S9pNHEyGw1JXpuw_c-To-4" source="S9pNHEyGw1JXpuw_c-To-29" target="S9pNHEyGw1JXpuw_c-To-31">
          <mxGeometry relative="1" as="geometry" />
        </mxCell>
        <mxCell id="S9pNHEyGw1JXpuw_c-To-29" value="VPC環境変更" style="rounded=1;whiteSpace=wrap;html=1;" vertex="1" parent="S9pNHEyGw1JXpuw_c-To-4">
          <mxGeometry x="19.999999999999545" y="180" width="90" height="40" as="geometry" />
        </mxCell>
        <mxCell id="S9pNHEyGw1JXpuw_c-To-31" value="完了報告" style="rounded=1;whiteSpace=wrap;html=1;" vertex="1" parent="S9pNHEyGw1JXpuw_c-To-4">
          <mxGeometry x="19.999999999999545" y="250" width="90" height="40" as="geometry" />
        </mxCell>
        <mxCell id="S9pNHEyGw1JXpuw_c-To-7" value="" style="edgeStyle=orthogonalEdgeStyle;rounded=0;orthogonalLoop=1;jettySize=auto;html=1;entryX=0;entryY=0.5;entryDx=0;entryDy=0;" edge="1" parent="S9pNHEyGw1JXpuw_c-To-1" source="S9pNHEyGw1JXpuw_c-To-5" target="S9pNHEyGw1JXpuw_c-To-8">
          <mxGeometry relative="1" as="geometry">
            <mxPoint x="134.99999999999955" y="96" as="targetPoint" />
          </mxGeometry>
        </mxCell>
        <mxCell id="S9pNHEyGw1JXpuw_c-To-25" value="" style="edgeStyle=orthogonalEdgeStyle;rounded=0;orthogonalLoop=1;jettySize=auto;html=1;" edge="1" parent="S9pNHEyGw1JXpuw_c-To-1" source="S9pNHEyGw1JXpuw_c-To-11" target="S9pNHEyGw1JXpuw_c-To-24">
          <mxGeometry relative="1" as="geometry" />
        </mxCell>
        <mxCell id="S9pNHEyGw1JXpuw_c-To-30" value="" style="edgeStyle=orthogonalEdgeStyle;rounded=0;orthogonalLoop=1;jettySize=auto;html=1;" edge="1" parent="S9pNHEyGw1JXpuw_c-To-1" source="S9pNHEyGw1JXpuw_c-To-27" target="S9pNHEyGw1JXpuw_c-To-29">
          <mxGeometry relative="1" as="geometry" />
        </mxCell>
        <mxCell id="S9pNHEyGw1JXpuw_c-To-34" value="" style="edgeStyle=orthogonalEdgeStyle;rounded=0;orthogonalLoop=1;jettySize=auto;html=1;entryX=1;entryY=0.5;entryDx=0;entryDy=0;" edge="1" parent="S9pNHEyGw1JXpuw_c-To-1" source="S9pNHEyGw1JXpuw_c-To-31" target="S9pNHEyGw1JXpuw_c-To-11">
          <mxGeometry relative="1" as="geometry">
            <mxPoint x="339.99999999999955" y="290" as="targetPoint" />
          </mxGeometry>
        </mxCell>
      </root>
    </mxGraphModel>
  </diagram>
</mxfile>
